<svg xmlns="http://www.w3.org/2000/svg" viewBox="0 0 98 79"><path d="M52 58h2v2h-2zm-32 0h2v2h-2zm26 0h2v2h-2zm-7 0h2v2h-2zm-12 0h2v2h-2zm6 0h2v2h-2zm-9-15h19V32H24v11zm2.317-8.911h14.366v6.822H26.317V34.09zM53 42h18v2H53zm9-6h18v2H62z"/><path d="M97.776 43.214c-.3-.452-.898-.602-1.347-.301l-10.176 4.06V29.23c0-2.707-2.095-4.812-4.789-4.812H75.18L65.153 2.315C64.705 1.262 63.956.66 62.91.21c-.898-.301-1.946-.301-2.843.15L2.154 26.824c-.898.451-1.646 1.203-1.945 2.105-.3.902-.3 1.955.15 2.857l14.814 32.78h.15c.598 1.954 2.394 3.457 4.489 3.457h34.866l1.497.903v9.021c0 .452.3.903.748 1.053h.3c.299 0 .598-.15.897-.451l4.64-5.864 8.38 5.112c.448.3 1.196.15 1.496-.3l25.14-33.23c.299-.151.299-.753 0-1.053zm-25.14-18.796H41.06L67.248 12.54l5.388 11.88zM2.304 29.831c.15-.45.449-.752.748-.902L60.963 2.465c.45-.15.749-.15 1.198 0 .449.15.748.451.897.752l3.293 7.217-30.677 13.984H19.812c-2.694 0-4.789 2.105-4.789 4.812v4.51l-9.577 4.361-3.142-7.067c-.15-.451-.15-.902 0-1.203zm12.72 29.17l-8.53-18.945 8.53-3.91v22.856zm4.788 6.767c-1.347 0-2.544-1.203-2.544-2.556V29.23c0-1.354 1.197-2.556 2.544-2.556h61.652c1.347 0 2.544 1.202 2.544 2.556v18.645L48.393 62.159c-.448.15-.598.602-.748.902 0 .452.15.903.599 1.053l2.693 1.654H19.812zm41.9 4.962l-3.292 4.21v-5.864l9.427-4.962-6.135 6.616zm9.726 4.812l-7.182-4.36 9.876-10.526c.449-.451.449-1.053.15-1.504-.3-.451-.898-.601-1.347-.3L57.522 66.97l-6.285-3.609 42.349-16.99-22.148 29.17z"/></svg>