<svg xmlns="http://www.w3.org/2000/svg" viewBox="0 0 86 79"><g fill="none" fill-rule="evenodd"><path stroke="#000" stroke-linecap="square" stroke-linejoin="round" stroke-width="2" d="M72.012 10.958v-9.68 9.68zm-13.012 0v-9.68 9.68zm-12.992 0v-9.68 9.68zM85 11.992c0 3.4-2.886 6.153-6.479 6.153-3.59 0-6.502-2.754-6.502-6.153H85zm-12.98 0c0 3.4-2.92 6.153-6.52 6.153-3.602 0-6.5-2.754-6.5-6.153h13.02zm-13.02 0c0 3.4-2.898 6.153-6.49 6.153-3.59 0-6.502-2.754-6.502-6.153H59zm-12.992 0c0 3.4-2.914 6.153-6.504 6.153-3.59 0-6.504-2.754-6.504-6.153h13.008zM34.913 1h48.176C84.144 1 85 1.81 85 2.81V44H33V2.81c0-1 .856-1.81 1.913-1.81zm27.88 36.415h13.006v-12.31H62.793v12.31zM42.226 44h13.006V25.105H42.226V44z"/><path fill="#1298D4" d="M51 48.497l-4.38-6.973-7.744-.804v-5.485c-4.42-.12-6.734-.188-6.944-.207-.21-.019-3.511-.028-9.903-.028-1.029 11.333-1.286 16.95-.772 16.852.515-.098 6.388-.05 17.619.148 6.612-.58 10.014-.91 10.206-.99.192-.078.831-.916 1.918-2.513z"/><path stroke="#000" stroke-linecap="round" stroke-linejoin="round" stroke-width="2" d="M8.193 72.735h-2.68c-1.189 0-2.152-1.122-2.152-2.506v-6.327l4.832 8.833zm10.005 0h24.009-24.009zm34.048 0h5.603c1.188 0 2.151-1.122 2.151-2.506V57.634l-5.67-4.21-6.912-11.87h-7.7l12.528 31.18zm-15.333-8.833H3.229C1.998 63.902 1 62.925 1 61.718V37.186C1 35.978 1.998 35 3.23 35h33.683c1.235 0 2.23.978 2.23 2.186v24.532c0 1.207-.995 2.184-2.23 2.184z"/><path stroke="#000" stroke-linecap="square" stroke-linejoin="round" stroke-width="2" d="M51.955 72.498c0 2.777-2.247 5.028-5.014 5.028a5.02 5.02 0 0 1-5.015-5.028 5.02 5.02 0 0 1 5.015-5.029c2.767 0 5.014 2.251 5.014 5.029zm-33.853.598c0-2.708-2.23-4.904-4.976-4.904-2.747 0-4.974 2.196-4.974 4.904 0 2.708 2.227 4.904 4.974 4.904 2.747 0 4.976-2.196 4.976-4.904z"/></g></svg>