<svg width="73" height="80" viewBox="0 0 73 80" xmlns="http://www.w3.org/2000/svg"><title>noun_Calendar_771731_000000 (1)</title><g id="V2-JP" fill="none" fill-rule="evenodd"><g id="buy-currency-online-desktop-v2" transform="translate(-1413 -2837)" fill="#FFF" fill-rule="nonzero" stroke="#FFF" stroke-width=".5"><g id="Group-7" transform="translate(386 2791)"><g id="noun_Calendar_771731_000000-(1)" transform="translate(1028 47)"><path d="M9.398 70.449h30.587C43.062 74.997 48.189 78 54.084 78 63.396 78 71 70.363 71 61.01c0-5.492-2.563-10.297-6.579-13.472v-32.35c0-5.234-4.186-9.439-9.398-9.439h-3.076V4.376C51.947 1.974 49.982 0 47.675 0c-2.307 0-4.272 1.974-4.272 4.376v1.287h-6.835V4.376C36.568 1.974 34.603 0 32.211 0c-2.393 0-4.272 1.974-4.272 4.376v1.287h-6.836V4.376C21.103 1.974 19.138 0 16.746 0c-2.392 0-4.272 1.974-4.272 4.376v1.287H9.398C4.187 5.663 0 9.868 0 15.103v45.82c0 5.234 4.272 9.525 9.398 9.525zm-7.69-55.347c0-4.29 3.418-7.722 7.69-7.722h3.076v1.287c0 2.402 1.965 4.376 4.272 4.376 2.392 0 4.357-1.974 4.357-4.376V7.38h6.836v1.287c0 2.402 1.965 4.376 4.272 4.376 2.392 0 4.357-1.974 4.357-4.376V7.38h6.835v1.287c0 2.402 1.965 4.376 4.272 4.376 2.307 0 4.272-1.974 4.272-4.376V7.38h3.076c4.272 0 7.69 3.432 7.69 7.722v6.78H1.708v-6.78zm15.124-13.3c1.452 0 2.648 1.201 2.648 2.66v4.29c0 1.46-1.196 2.66-2.648 2.66-1.453 0-2.564-1.2-2.564-2.66v-4.29c-.085-1.459 1.111-2.66 2.564-2.66zm15.464 0c1.452 0 2.649 1.201 2.649 2.66v4.29c0 1.46-1.197 2.66-2.649 2.66s-2.563-1.2-2.563-2.66v-4.29c-.086-1.459 1.11-2.66 2.563-2.66zm15.465 0c1.452 0 2.563 1.201 2.563 2.66v4.29c0 1.46-1.196 2.66-2.563 2.66-1.367 0-2.564-1.2-2.564-2.66v-4.29c-.085-1.459 1.111-2.66 2.564-2.66zm15.037 44.62a16.532 16.532 0 0 0-8.63-2.402c-1.965 0-3.759.343-5.553.944v-6.78h14.183v8.238zm-8.715 29.862c-8.373 0-15.208-6.865-15.208-15.274 0-8.41 6.835-15.274 15.208-15.274 8.373 0 15.208 6.865 15.208 15.274 0 8.41-6.75 15.274-15.208 15.274zM17.686 54.23h13.756v14.416H17.686V54.23zm29.22-17.848H33.15V23.597h13.756v12.786zm-7.519 16.132h-6.322V38.099h13.756v7.551c-3.076 1.459-5.725 3.862-7.434 6.865zm-7.945-28.918v12.786H17.686V23.597h13.756zm0 14.502v14.416H17.686V38.099h13.756zM33.15 54.23h5.469c-.855 2.06-1.367 4.376-1.367 6.693 0 2.746.683 5.406 1.88 7.723h-5.896V54.23h-.086zm15.465-17.848V23.597h14.183v12.786H48.615zM15.977 23.597v12.786H1.71V23.597h14.268zM1.71 38.1h14.183v14.416H1.709V38.099zm0 16.132h14.183v14.416H9.398c-4.272 0-7.69-3.432-7.69-7.723v-6.693z" id="Shape"/><path d="M54.222 62.266H44.89c-.533 0-.889.347-.889.867s.356.867.889.867h10.22c.533 0 .889-.347.889-.867V49.867c0-.52-.356-.867-.889-.867s-.889.347-.889.867v12.399z" id="Shape"/></g></g></g></g></svg>