<svg xmlns="http://www.w3.org/2000/svg" xmlns:xlink="http://www.w3.org/1999/xlink" viewBox="0 0 376 610" width="376" height="610"><defs><path id="a" d="M0 0h312.653v610H0z"/><path id="c" d="M0 .5h374.567V304H0z"/></defs><g fill="none" fill-rule="evenodd"><mask id="b" fill="#fff"><use xlink:href="#a"/></mask><path fill="#222745" d="M296.893 593.602l-45.88-42.01-62.148-56.9-66.704-61.074-59.555-54.53-40.699-37.262c-10.71-9.807-19.057-18.76-20.307-33.251v-.001c-.036-.41-.07-.82-.095-1.24a35.258 35.258 0 0 1-.082-2.19c0 .037-.004.07-.004.107 0-.037.004-.071.004-.108 0-.048-.004-.095-.004-.143 0-.047.004-.094.004-.142 0-.037-.004-.071-.004-.11 0 .038.004.072.004.108.003-.736.034-1.466.082-2.191.024-.418.06-.83.095-1.238 1.25-14.492 9.596-23.445 20.307-33.251 13.566-12.422 27.133-24.844 40.7-37.264l59.554-54.53 66.704-61.073 62.147-56.901 45.881-42.01 15.76-14.43V0H0v610h312.653v-1.968l-15.76-14.43" mask="url(#b)"/><path fill="#DA292F" d="M312.586 0l-17.808 16.305-45.618 41.768-61.79 56.574-66.321 60.723-59.213 54.216-40.466 37.05C9.811 277.22 1 286.786 1 303.5c0-20.643 22.517-32.629 37.195-43.923l50.804-39.089 65.691-50.543 70.91-54.559 66.461-51.136 52.344-40.273 28.558-21.973L375.567 0h-62.981z"/><g transform="translate(1 306)"><mask id="d" fill="#fff"><use xlink:href="#c"/></mask><path fill="#F0F0F1" d="M311.586 304l-17.808-16.305-45.618-41.768-61.79-56.574-66.32-60.724c-19.739-18.07-39.477-36.144-59.214-54.215L20.37 37.364C8.811 26.78 0 17.213 0 .5c0 20.642 22.517 32.63 37.195 43.923L88 83.513l65.691 50.542 70.91 54.558 66.461 51.136 52.344 40.274c9.52 7.325 19.038 14.65 28.558 21.973l2.604 2.004h-62.98z" mask="url(#d)"/></g></g></svg>