<svg xmlns="http://www.w3.org/2000/svg" xmlns:xlink="http://www.w3.org/1999/xlink" viewBox="0 0 376 610" width="370" height="610"><defs><path id="a" d="M316.587 610H-23V0h339.323L13.861 276.856C6.046 282.789 1 292.18 1 302.75c0 9.304 3.91 17.695 10.175 23.617a29.713 29.713 0 0 0 2.016 2.704l.332.307c.056.071.108.12.153.143L316.587 610z"/></defs><g fill="none" fill-rule="evenodd"><use fill="#222745" xlink:href="#a"/><path fill="#DA292F" d="M815.5-332.634c-7.309.555-14.463 3.603-20.051 9.19L9.809 281.032C3.603 287.238.5 295.37.5 303.5c0-9.675 3.103-19.353 9.309-26.736l785.64-719.329c5.588-6.647 12.742-10.274 20.051-10.935v120.866z"/><path fill="#F0F0F1" d="M807 939.134c-7.31-.555-14.463-3.602-20.052-9.19L10.308 325.468C4.104 319.263 1 311.132 1 303c0 9.677 3.103 19.353 9.309 26.736l776.64 719.328c5.588 6.648 12.742 10.275 20.051 10.936V939.134z"/></g></svg>